# Blender 4.3.2
# www.blender.org
mtllib GizmoScaleX.mtl
o ScaleX
v 0.000000 -0.000000 0.039000
v 1.000000 -0.000000 0.039000
v 0.000000 0.014925 0.036031
v 1.000000 0.014925 0.036031
v 0.000000 0.027577 0.027577
v 1.000000 0.027577 0.027577
v 0.000000 0.036031 0.014925
v 1.000000 0.036031 0.014924
v 0.000000 0.039000 0.000000
v 1.000000 0.039000 0.000000
v 0.000000 0.036031 -0.014924
v 1.000000 0.036031 -0.014925
v 0.000000 0.027577 -0.027577
v 1.000000 0.027577 -0.027577
v 0.000000 0.014925 -0.036031
v 1.000000 0.014925 -0.036031
v 0.000000 -0.000000 -0.039000
v 1.000000 -0.000000 -0.039000
v 0.000000 -0.014925 -0.036031
v 1.000000 -0.014925 -0.036031
v 0.000000 -0.027577 -0.027577
v 1.000000 -0.027577 -0.027577
v 0.000000 -0.036031 -0.014924
v 1.000000 -0.036031 -0.014925
v 0.000000 -0.039000 0.000000
v 1.000000 -0.039000 0.000000
v 0.000000 -0.036031 0.014925
v 1.000000 -0.036031 0.014924
v 0.000000 -0.027577 0.027577
v 1.000000 -0.027577 0.027577
v 0.000000 -0.014925 0.036031
v 1.000000 -0.014925 0.036031
v 1.000000 -0.120000 -0.120000
v 1.000000 -0.120000 0.120000
v 1.000000 0.120000 -0.120000
v 1.000000 0.120000 0.120000
v 1.240000 -0.120000 -0.120000
v 1.240000 -0.120000 0.120000
v 1.240000 0.120000 -0.120000
v 1.240000 0.120000 0.120000
vn -0.0000 -0.0000 1.0000
vn -0.0000 0.3827 0.9239
vn -0.0000 0.7071 0.7071
vn -0.0000 0.9239 0.3827
vn -0.0000 1.0000 -0.0000
vn -0.0000 0.9239 -0.3827
vn -0.0000 0.7071 -0.7071
vn -0.0000 0.3827 -0.9239
vn -0.0000 -0.0000 -1.0000
vn -0.0000 -0.3827 -0.9239
vn -0.0000 -0.7071 -0.7071
vn -0.0000 -0.9239 -0.3827
vn -0.0000 -1.0000 -0.0000
vn -0.0000 -0.9239 0.3827
vn -0.0000 -0.7071 0.7071
vn -0.0000 -0.3827 0.9239
vn -1.0000 -0.0000 -0.0000
vn 1.0000 -0.0000 -0.0000
vt 0.507577 -0.000000
vt 0.522502 1.000000
vt 0.507577 1.000000
vt 0.522502 -0.000000
vt 0.535154 1.000000
vt 0.535154 -0.000000
vt 0.547806 1.000000
vt 0.535154 1.000000
vt 0.547807 -0.000000
vt 0.562731 1.000000
vt 0.562731 -0.000000
vt 0.577655 1.000000
vt 0.577656 -0.000000
vt 0.590308 1.000000
vt 0.645462 1.000000
vt 0.632810 0.000000
vt 0.645462 0.000000
vt 0.632810 1.000000
vt 0.617885 0.000000
vt 0.617885 1.000000
vt 0.602960 -0.000000
vt 0.602959 1.000000
vt 0.590308 -0.000000
vt 0.700615 1.000000
vt 0.687963 0.000000
vt 0.700616 0.000000
vt 0.687964 1.000000
vt 0.673039 -0.000000
vt 0.673039 1.000000
vt 0.658113 -0.000000
vt 0.658115 1.000000
vt 0.645462 -0.000000
vt 0.480000 -0.000000
vt 0.492652 1.000000
vt 0.480000 1.000000
vt 0.492652 -0.000000
vt 0.717200 0.070678
vt 0.706439 0.016584
vt 0.760532 0.005822
vt 0.535154 -0.000000
vt 0.590308 -0.000000
vt 0.590308 1.000000
vt 0.645462 1.000000
vt 0.771293 0.016583
vt 0.777116 0.030642
vt 0.777116 0.045858
vt 0.771294 0.059916
vt 0.760534 0.070677
vt 0.746475 0.076500
vt 0.731258 0.076501
vt 0.706439 0.059918
vt 0.700616 0.045859
vt 0.700616 0.030643
vt 0.717198 0.005824
vt 0.731257 0.000000
vt 0.746474 0.000000
vt -0.000000 0.240000
vt 0.240000 0.000000
vt 0.240000 0.240000
vt 0.000000 0.480000
vt 0.240000 0.240000
vt 0.240000 0.480000
vt 0.240000 0.240000
vt 0.480000 0.000000
vt 0.480000 0.240000
vt 0.240000 0.480000
vt 0.480000 0.240000
vt 0.480000 0.480000
vt 0.240000 0.720000
vt 0.000000 0.480000
vt 0.240000 0.480000
vt 0.480000 0.720000
vt 0.000000 0.000000
vt 0.000000 0.240000
vt 0.240000 -0.000000
vt 0.240000 0.240000
vt 0.000000 0.720000
vt 0.240000 0.720000
s 1
usemtl Red
f 2/1/1 3/2/2 1/3/1
f 4/4/2 5/5/3 3/2/2
f 6/6/3 7/7/4 5/8/3
f 8/9/4 9/10/5 7/7/4
f 10/11/5 11/12/6 9/10/5
f 12/13/6 13/14/7 11/12/6
f 14/15/7 15/16/8 13/17/7
f 16/18/8 17/19/9 15/16/8
f 18/20/9 19/21/10 17/19/9
f 20/22/10 21/23/11 19/21/10
f 22/24/11 23/25/12 21/26/11
f 24/27/12 25/28/13 23/25/12
f 26/29/13 27/30/14 25/28/13
f 28/31/14 29/32/15 27/30/14
f 30/33/15 31/34/16 29/35/15
f 32/36/16 1/3/1 31/34/16
f 15/37/17 23/38/17 31/39/17
f 2/1/1 4/4/2 3/2/2
f 4/4/2 6/40/3 5/5/3
f 6/6/3 8/9/4 7/7/4
f 8/9/4 10/11/5 9/10/5
f 10/11/5 12/13/6 11/12/6
f 12/13/6 14/41/7 13/14/7
f 14/15/7 16/18/8 15/16/8
f 16/18/8 18/20/9 17/19/9
f 18/20/9 20/22/10 19/21/10
f 20/22/10 22/42/11 21/23/11
f 22/24/11 24/27/12 23/25/12
f 24/27/12 26/29/13 25/28/13
f 26/29/13 28/31/14 27/30/14
f 28/31/14 30/43/15 29/32/15
f 30/33/15 32/36/16 31/34/16
f 32/36/16 2/1/1 1/3/1
f 31/39/17 1/44/17 3/45/17
f 3/45/17 5/46/17 7/47/17
f 7/47/17 9/48/17 11/49/17
f 11/49/17 13/50/17 15/37/17
f 15/37/17 17/51/17 19/52/17
f 19/52/17 21/53/17 23/38/17
f 23/38/17 25/54/17 27/55/17
f 27/55/17 29/56/17 31/39/17
f 31/39/17 3/45/17 7/47/17
f 7/47/17 11/49/17 15/37/17
f 15/37/17 19/52/17 23/38/17
f 23/38/17 27/55/17 31/39/17
f 31/39/17 7/47/17 15/37/17
s 0
f 34/57/17 35/58/17 33/59/17
f 36/60/5 39/61/5 35/62/5
f 40/63/18 37/64/18 39/65/18
f 38/66/13 33/67/13 37/68/13
f 39/69/9 33/70/9 35/71/9
f 36/72/1 38/66/1 40/68/1
f 34/57/17 36/73/17 35/58/17
f 36/60/5 40/74/5 39/61/5
f 40/63/18 38/75/18 37/64/18
f 38/66/13 34/76/13 33/67/13
f 39/69/9 37/77/9 33/70/9
f 36/72/1 34/78/1 38/66/1
