# Blender 4.3.2
# www.blender.org
mtllib GizmoTranslationY.mtl
o TranslationY
v -0.000000 -1.000000 0.100000
v 0.038269 -1.000000 0.092387
v 0.070711 -1.000000 0.070711
v 0.092387 -1.000000 0.038269
v 0.100000 -1.000000 0.000000
v 0.092387 -1.000000 -0.038269
v 0.070711 -1.000000 -0.070711
v 0.038269 -1.000000 -0.092387
v -0.000000 -1.000000 -0.100000
v -0.038269 -1.000000 -0.092387
v -0.070711 -1.000000 -0.070711
v -0.092388 -1.000000 -0.038269
v -0.100000 -1.000000 0.000000
v -0.092388 -1.000000 0.038269
v -0.070711 -1.000000 0.070711
v -0.038269 -1.000000 0.092387
v -0.000000 -1.400000 0.000000
v -0.000000 0.000000 0.039000
v -0.000000 -1.000000 0.039000
v 0.014925 -0.000000 0.036031
v 0.014925 -1.000000 0.036031
v 0.027577 -0.000000 0.027577
v 0.027577 -1.000000 0.027577
v 0.036031 -0.000000 0.014925
v 0.036031 -1.000000 0.014924
v 0.039000 -0.000000 -0.000000
v 0.039000 -1.000000 -0.000000
v 0.036031 -0.000000 -0.014924
v 0.036031 -1.000000 -0.014925
v 0.027577 -0.000000 -0.027577
v 0.027577 -1.000000 -0.027577
v 0.014925 -0.000000 -0.036031
v 0.014925 -1.000000 -0.036031
v -0.000000 0.000000 -0.039000
v -0.000000 -1.000000 -0.039000
v -0.014925 0.000000 -0.036031
v -0.014925 -1.000000 -0.036031
v -0.027577 0.000000 -0.027577
v -0.027577 -1.000000 -0.027577
v -0.036031 0.000000 -0.014924
v -0.036031 -1.000000 -0.014925
v -0.039000 0.000000 -0.000000
v -0.039000 -1.000000 -0.000000
v -0.036031 0.000000 0.014925
v -0.036031 -1.000000 0.014924
v -0.027577 0.000000 0.027577
v -0.027577 -1.000000 0.027577
v -0.014925 0.000000 0.036031
v -0.014925 -1.000000 0.036031
vn -0.0000 -0.2425 0.9701
vn -0.0000 -1.0000 -0.0000
vn 0.3713 -0.2425 0.8963
vn 0.6860 -0.2425 0.6860
vn 0.8963 -0.2425 0.3713
vn 0.9701 -0.2425 -0.0000
vn 0.8963 -0.2425 -0.3713
vn 0.6860 -0.2425 -0.6860
vn 0.3713 -0.2425 -0.8963
vn -0.0000 -0.2425 -0.9701
vn -0.3713 -0.2425 -0.8963
vn -0.6860 -0.2425 -0.6860
vn -0.8963 -0.2425 -0.3713
vn -0.9701 -0.2425 -0.0000
vn -0.8963 -0.2425 0.3713
vn -0.6860 -0.2425 0.6860
vn -0.3713 -0.2425 0.8963
vn -0.0000 -0.0000 1.0000
vn 0.3827 -0.0000 0.9239
vn 0.7071 -0.0000 0.7071
vn 0.9239 -0.0000 0.3827
vn 1.0000 -0.0000 -0.0000
vn 0.9239 -0.0000 -0.3827
vn 0.7071 -0.0000 -0.7071
vn 0.3827 -0.0000 -0.9239
vn -0.0000 -0.0000 -1.0000
vn -0.3827 -0.0000 -0.9239
vn -0.7071 -0.0000 -0.7071
vn -0.9239 -0.0000 -0.3827
vn -1.0000 -0.0000 -0.0000
vn -0.9239 -0.0000 0.3827
vn -0.7071 -0.0000 0.7071
vn -0.3827 -0.0000 0.9239
vn -0.0000 1.0000 -0.0000
vt 0.080776 0.004904
vt 0.131768 0.409503
vt 0.049858 0.010014
vt 0.021494 0.015940
vt 0.000000 0.021779
vt 0.608330 0.000000
vt 0.608330 0.408720
vt 0.579418 0.001947
vt 0.548269 0.005368
vt 0.519624 0.009742
vt 0.242042 0.394317
vt 0.352528 -0.000000
vt 0.263822 0.398978
vt 0.292467 0.403352
vt 0.323616 0.406773
vt 0.352528 0.408720
vt 0.131768 0.000000
vt 0.153998 0.408115
vt 0.182761 0.404599
vt 0.213678 0.399489
vt 0.242042 0.393563
vt 0.109538 0.001388
vt 0.383445 0.998696
vt 0.371694 -0.000000
vt 0.383445 -0.000000
vt 0.371694 0.998696
vt 0.360837 0.000458
vt 0.360837 0.999154
vt 0.352528 0.001304
vt 0.477850 0.000846
vt 0.488707 1.000000
vt 0.477850 0.999542
vt 0.488707 0.001304
vt 0.500458 1.000000
vt 0.500458 0.001304
vt 0.511315 0.999542
vt 0.511315 0.000846
vt 0.519624 0.998696
vt 0.394302 0.000846
vt 0.405159 1.000000
vt 0.394302 0.999542
vt 0.405158 0.001304
vt 0.416910 1.000000
vt 0.416910 0.001304
vt 0.427767 0.999542
vt 0.427766 0.000846
vt 0.436076 0.998696
vt 0.477850 0.999154
vt 0.466993 -0.000000
vt 0.477850 0.000458
vt 0.466993 0.998696
vt 0.455242 -0.000000
vt 0.455242 0.998696
vt 0.444385 0.000458
vt 0.444385 0.999154
vt 0.436076 0.001304
vt 0.394302 0.999154
vt 0.394302 0.000458
vt 0.254849 0.463301
vt 0.246539 0.421527
vt 0.288313 0.413217
vt 0.157540 0.472604
vt 0.108309 0.482397
vt 0.145548 0.443653
vt 0.103812 0.471540
vt 0.123389 0.421495
vt 0.095502 0.463231
vt 0.094438 0.409503
vt 0.084645 0.458734
vt 0.063102 0.409503
vt 0.072894 0.458734
vt 0.034150 0.421495
vt 0.062038 0.463231
vt 0.011992 0.443653
vt 0.053728 0.471540
vt -0.000000 0.472604
vt 0.049231 0.482397
vt -0.000000 0.503941
vt 0.049231 0.494148
vt 0.011992 0.532892
vt 0.053728 0.505005
vt 0.034150 0.555051
vt 0.062038 0.513314
vt 0.063102 0.567043
vt 0.072894 0.517811
vt 0.094438 0.567043
vt 0.084645 0.517811
vt 0.123389 0.555051
vt 0.095502 0.513314
vt 0.145548 0.532892
vt 0.103812 0.505005
vt 0.157540 0.503941
vt 0.108309 0.494148
vt 0.352528 1.000000
vt 0.519624 -0.000000
vt 0.436076 0.000000
vt 0.436076 1.000000
vt 0.296623 0.421527
vt 0.301120 0.432383
vt 0.301120 0.444135
vt 0.296623 0.454991
vt 0.288313 0.463301
vt 0.277457 0.467798
vt 0.265705 0.467798
vt 0.246539 0.454991
vt 0.242042 0.444135
vt 0.242042 0.432383
vt 0.254849 0.413217
vt 0.265705 0.408720
vt 0.277457 0.408720
s 1
usemtl Green
f 1/1/1 17/2/2 2/3/3
f 2/3/3 17/2/2 3/4/4
f 3/4/4 17/2/2 4/5/5
f 4/6/5 17/7/2 5/8/6
f 5/8/6 17/7/2 6/9/7
f 6/9/7 17/7/2 7/10/8
f 7/11/8 17/12/2 8/13/9
f 8/13/9 17/12/2 9/14/10
f 9/14/10 17/12/2 10/15/11
f 10/15/11 17/12/2 11/16/12
f 11/2/12 17/17/2 12/18/13
f 12/18/13 17/17/2 13/19/14
f 13/19/14 17/17/2 14/20/15
f 14/20/15 17/17/2 15/21/16
f 15/17/16 17/2/2 16/22/17
f 16/22/17 17/2/2 1/1/1
f 19/23/18 20/24/19 18/25/18
f 21/26/19 22/27/20 20/24/19
f 23/28/20 24/29/21 22/27/20
f 25/30/21 26/31/22 24/32/21
f 27/33/22 28/34/23 26/31/22
f 29/35/23 30/36/24 28/34/23
f 31/37/24 32/38/25 30/36/24
f 33/39/25 34/40/26 32/41/25
f 35/42/26 36/43/27 34/40/26
f 37/44/27 38/45/28 36/43/27
f 39/46/28 40/47/29 38/45/28
f 41/48/29 42/49/30 40/50/29
f 43/51/30 44/52/31 42/49/30
f 45/53/31 46/54/32 44/52/31
f 47/55/32 48/56/33 46/54/32
f 49/57/33 18/25/18 48/58/33
f 32/59/34 40/60/34 48/61/34
f 1/62/34 19/63/34 16/64/34
f 49/65/34 16/64/34 19/63/34
f 16/64/34 49/65/34 15/66/34
f 49/65/34 47/67/34 15/66/34
f 15/66/34 47/67/34 14/68/34
f 47/67/34 45/69/34 14/68/34
f 14/68/34 45/69/34 13/70/34
f 43/71/34 12/72/34 13/70/34
f 12/72/34 41/73/34 11/74/34
f 39/75/34 10/76/34 11/74/34
f 37/77/34 9/78/34 10/76/34
f 35/79/34 8/80/34 9/78/34
f 33/81/34 7/82/34 8/80/34
f 31/83/34 6/84/34 7/82/34
f 29/85/34 5/86/34 6/84/34
f 27/87/34 4/88/34 5/86/34
f 4/88/34 25/89/34 3/90/34
f 23/91/34 2/92/34 3/90/34
f 21/93/34 1/62/34 2/92/34
f 21/93/34 19/63/34 1/62/34
f 23/91/34 21/93/34 2/92/34
f 23/91/34 3/90/34 25/89/34
f 27/87/34 25/89/34 4/88/34
f 29/85/34 27/87/34 5/86/34
f 31/83/34 29/85/34 6/84/34
f 33/81/34 31/83/34 7/82/34
f 35/79/34 33/81/34 8/80/34
f 37/77/34 35/79/34 9/78/34
f 39/75/34 37/77/34 10/76/34
f 39/75/34 11/74/34 41/73/34
f 43/71/34 41/73/34 12/72/34
f 45/69/34 43/71/34 13/70/34
f 19/23/18 21/26/19 20/24/19
f 21/26/19 23/28/20 22/27/20
f 23/28/20 25/94/21 24/29/21
f 25/30/21 27/33/22 26/31/22
f 27/33/22 29/35/23 28/34/23
f 29/35/23 31/37/24 30/36/24
f 31/37/24 33/95/25 32/38/25
f 33/39/25 35/42/26 34/40/26
f 35/42/26 37/44/27 36/43/27
f 37/44/27 39/46/28 38/45/28
f 39/46/28 41/96/29 40/47/29
f 41/48/29 43/51/30 42/49/30
f 43/51/30 45/53/31 44/52/31
f 45/53/31 47/55/32 46/54/32
f 47/55/32 49/97/33 48/56/33
f 49/57/33 19/23/18 18/25/18
f 48/61/34 18/98/34 20/99/34
f 20/99/34 22/100/34 24/101/34
f 24/101/34 26/102/34 28/103/34
f 28/103/34 30/104/34 32/59/34
f 32/59/34 34/105/34 36/106/34
f 36/106/34 38/107/34 40/60/34
f 40/60/34 42/108/34 44/109/34
f 44/109/34 46/110/34 48/61/34
f 48/61/34 20/99/34 24/101/34
f 24/101/34 28/103/34 32/59/34
f 32/59/34 36/106/34 40/60/34
f 40/60/34 44/109/34 48/61/34
f 48/61/34 24/101/34 32/59/34
